<svg id="레이어_1" data-name="레이어 1" xmlns="http://www.w3.org/2000/svg" xmlns:xlink="http://www.w3.org/1999/xlink" viewBox="0 0 118.1 24.31"><defs><style>.cls-1{fill:#181f60;}.cls-2{fill:url(#linear-gradient);}.cls-3{fill:#003d8a;}.cls-4{fill:url(#linear-gradient-2);}</style><linearGradient id="linear-gradient" x1="57.61" y1="20.89" x2="65.87" y2="20.89" gradientUnits="userSpaceOnUse"><stop offset="0" stop-color="#141b63"/><stop offset="0.27" stop-color="#0d2773"/><stop offset="0.61" stop-color="#003c8d"/></linearGradient><linearGradient id="linear-gradient-2" x1="0.9" y1="13.55" x2="34.58" y2="13.55" gradientUnits="userSpaceOnUse"><stop offset="0" stop-color="#141b63"/><stop offset="0.53" stop-color="#003c8d"/></linearGradient></defs><title>logo</title><path class="cls-1" d="M41.67,22a3.06,3.06,0,0,1-1.37,2.62,4.94,4.94,0,0,1-1.64.72,8.76,8.76,0,0,1-2.21.26H35.2l-.8,0-.84,0-2-.07h-.8V24.6a4.74,4.74,0,0,0,1-.29q.33-.16.33-.3V14.17l-.72.08c-.22,0-.42.06-.59.1l-.14-.9c.3-.07.66-.14,1.07-.21s.86-.13,1.32-.18.92-.1,1.39-.14.9-.05,1.3-.05a10.63,10.63,0,0,1,2.07.18,5.42,5.42,0,0,1,1.55.52,2.75,2.75,0,0,1,1,.83,1.89,1.89,0,0,1,.33,1.09,2.84,2.84,0,0,1-.58,1.8,3.28,3.28,0,0,1-1.75,1.09,4.62,4.62,0,0,1,1.39.44,4,4,0,0,1,1.08.79,3.39,3.39,0,0,1,.69,1.07A3.2,3.2,0,0,1,41.67,22ZM35,14h-.27v4.18h.14A4.74,4.74,0,0,0,36.39,18a2.09,2.09,0,0,0,.89-.49,1.52,1.52,0,0,0,.43-.7,3.24,3.24,0,0,0,.11-.82,2.55,2.55,0,0,0-.13-.86,1.41,1.41,0,0,0-.47-.62,2.21,2.21,0,0,0-.86-.38A5.53,5.53,0,0,0,35,14ZM36,19.24a4.53,4.53,0,0,0-.71,0l-.51.08v4.75a.27.27,0,0,0,0,.12,1.88,1.88,0,0,0,.56.16,4.65,4.65,0,0,0,.69.05,3,3,0,0,0,2.09-.63,2.2,2.2,0,0,0,.68-1.72A4.57,4.57,0,0,0,38.69,21a2.5,2.5,0,0,0-.45-.91,2.17,2.17,0,0,0-.87-.65A3.5,3.5,0,0,0,36,19.24Z" transform="translate(-0.9 -1.39)"/><path class="cls-1" d="M41.83,25.41V24.6a5.51,5.51,0,0,0,.69-.14,2.54,2.54,0,0,0,.42-.14.49.49,0,0,0,.2-.15.27.27,0,0,0,0-.16V13.2a4,4,0,0,0,0-.68.68.68,0,0,0-.18-.37.78.78,0,0,0-.38-.16l-.66-.09v-.78l1-.14.86-.16c.27-.06.54-.13.79-.21a6.85,6.85,0,0,0,.8-.27l.45.43V24a.24.24,0,0,0,.06.15.69.69,0,0,0,.22.15,2.43,2.43,0,0,0,.42.15,4.92,4.92,0,0,0,.66.14v.81Z" transform="translate(-0.9 -1.39)"/><path class="cls-1" d="M56.9,20.7A4.58,4.58,0,0,1,56.72,22a4.86,4.86,0,0,1-.5,1.17,5.12,5.12,0,0,1-.77,1,4.56,4.56,0,0,1-1,.81,4.51,4.51,0,0,1-1.16.53A4.29,4.29,0,0,1,52,25.7a4.85,4.85,0,0,1-1.86-.35,4.09,4.09,0,0,1-1.43-1,4.15,4.15,0,0,1-.91-1.46,5,5,0,0,1-.33-1.84,5.37,5.37,0,0,1,.16-1.26,5.48,5.48,0,0,1,.47-1.18,4.63,4.63,0,0,1,.74-1,4.23,4.23,0,0,1,1-.81,4.68,4.68,0,0,1,2.56-.73,4.67,4.67,0,0,1,1.86.35,4.19,4.19,0,0,1,1.43,1,4.34,4.34,0,0,1,.91,1.47A5,5,0,0,1,56.9,20.7Zm-2.77.48A7.63,7.63,0,0,0,54,19.72a5.08,5.08,0,0,0-.38-1.23,2.4,2.4,0,0,0-.64-.84,1.39,1.39,0,0,0-.88-.31,1.53,1.53,0,0,0-.91.26,1.83,1.83,0,0,0-.57.73,3.75,3.75,0,0,0-.29,1.11,9.75,9.75,0,0,0-.09,1.37,6.45,6.45,0,0,0,.16,1.43,4.68,4.68,0,0,0,.41,1.15,2.28,2.28,0,0,0,.65.77,1.29,1.29,0,0,0,.82.28,1.76,1.76,0,0,0,.9-.21,1.49,1.49,0,0,0,.57-.62,3.41,3.41,0,0,0,.3-1A11.69,11.69,0,0,0,54.13,21.18Z" transform="translate(-0.9 -1.39)"/><path class="cls-2" d="M65.87,23.56a8.77,8.77,0,0,1-1.18,1.14,5.64,5.64,0,0,1-1.06.64,3.54,3.54,0,0,1-1,.29,5.79,5.79,0,0,1-.92.07,3.9,3.9,0,0,1-2.88-1.22A4.53,4.53,0,0,1,58,23a5.16,5.16,0,0,1-.34-1.94,4.93,4.93,0,0,1,.39-2,4.75,4.75,0,0,1,1.09-1.59,5.13,5.13,0,0,1,1.69-1.07A5.84,5.84,0,0,1,63,16.08a7.24,7.24,0,0,1,.74.05,7.34,7.34,0,0,1,.84.16,5.35,5.35,0,0,1,.77.24,1.36,1.36,0,0,1,.51.32.88.88,0,0,1,0,.29,4.33,4.33,0,0,1-.11.51c-.05.19-.1.39-.17.61s-.13.42-.19.62-.13.36-.19.51a1.48,1.48,0,0,1-.15.31l-.75-.09a8,8,0,0,0-.38-1,2.89,2.89,0,0,0-.43-.7,1.53,1.53,0,0,0-.51-.42,1.47,1.47,0,0,0-.64-.14,1.59,1.59,0,0,0-.76.19,1.65,1.65,0,0,0-.65.59,3.48,3.48,0,0,0-.46,1.06,6.73,6.73,0,0,0-.17,1.61,4.6,4.6,0,0,0,.18,1.35,2.9,2.9,0,0,0,.51,1,2.21,2.21,0,0,0,.76.61,2.17,2.17,0,0,0,1,.21,4.75,4.75,0,0,0,.54,0,3,3,0,0,0,.57-.15,5.9,5.9,0,0,0,.68-.33c.25-.15.54-.33.88-.57Z" transform="translate(-0.9 -1.39)"/><path class="cls-3" d="M79.61,14a6.76,6.76,0,0,0-1,.25.66.66,0,0,0-.47.39l-3.63,9.93a.87.87,0,0,1-.3.4,2.1,2.1,0,0,1-.52.33,4.78,4.78,0,0,1-.62.26c-.22.07-.42.13-.6.17L68,14.61a.81.81,0,0,0-.39-.41,2.74,2.74,0,0,0-.9-.23v-.81h5.2V14a4.27,4.27,0,0,0-.63.08,1.21,1.21,0,0,0-.38.12.3.3,0,0,0-.16.18.35.35,0,0,0,0,.24l3.06,7.78,2.76-7.76a.42.42,0,0,0,0-.24.26.26,0,0,0-.17-.17,1.66,1.66,0,0,0-.38-.13,5.91,5.91,0,0,0-.66-.1v-.81h4.24Z" transform="translate(-0.9 -1.39)"/><path class="cls-3" d="M79.53,25.41V24.6a4.1,4.1,0,0,0,1-.29q.3-.16.3-.3V19.19c0-.33,0-.6,0-.8a.9.9,0,0,0-.11-.48.61.61,0,0,0-.37-.25,4.29,4.29,0,0,0-.78-.12v-.78c.61-.08,1.17-.17,1.69-.28a14,14,0,0,0,1.48-.4h.72V24c0,.08.1.17.28.29a3.34,3.34,0,0,0,1,.3v.81Zm4.28-12.26a1.42,1.42,0,0,1-.13.63,1.37,1.37,0,0,1-.38.48,1.66,1.66,0,0,1-.57.31,2.36,2.36,0,0,1-.72.11,2.1,2.1,0,0,1-.56-.07,1.68,1.68,0,0,1-.48-.2,1.14,1.14,0,0,1-.34-.35,1.07,1.07,0,0,1-.12-.51,1.33,1.33,0,0,1,.14-.63,1.37,1.37,0,0,1,.38-.48,1.72,1.72,0,0,1,.57-.3,2.3,2.3,0,0,1,.71-.11,2.08,2.08,0,0,1,.55.07,1.48,1.48,0,0,1,.48.2,1.1,1.1,0,0,1,.34.34A.92.92,0,0,1,83.81,13.15Z" transform="translate(-0.9 -1.39)"/><path class="cls-3" d="M92.36,22.66a3,3,0,0,1-.21,1.18,2.75,2.75,0,0,1-.56.83,2.56,2.56,0,0,1-.78.55,4.85,4.85,0,0,1-.88.31,5.61,5.61,0,0,1-.87.14l-.72,0a6.29,6.29,0,0,1-.73,0c-.26,0-.53-.08-.8-.13A6.41,6.41,0,0,1,86,25.3a4.6,4.6,0,0,1-.71-.31s-.08-.14-.1-.35,0-.48,0-.79,0-.62,0-1a6.54,6.54,0,0,1,.16-.91l.9.11a4.62,4.62,0,0,0,.36,1,3.53,3.53,0,0,0,.54.74,2.43,2.43,0,0,0,.67.46,2,2,0,0,0,.77.16,1.92,1.92,0,0,0,1-.2.83.83,0,0,0,.3-.75,1.41,1.41,0,0,0-.19-.7,2.55,2.55,0,0,0-.52-.58,4.16,4.16,0,0,0-.74-.5l-.86-.47c-.28-.14-.55-.29-.82-.46a4.64,4.64,0,0,1-.74-.56,2.53,2.53,0,0,1-.55-.68,1.69,1.69,0,0,1-.21-.84,2.06,2.06,0,0,1,.31-1.09,2.82,2.82,0,0,1,.83-.82,4.18,4.18,0,0,1,1.17-.53A5.13,5.13,0,0,1,89,16.08a8.85,8.85,0,0,1,.89.05c.3,0,.58.09.85.15a6.28,6.28,0,0,1,.73.23,3,3,0,0,1,.57.32s0,.15,0,.35a5.46,5.46,0,0,1-.12.68,7.16,7.16,0,0,1-.23.75,2,2,0,0,1-.26.55l-.77-.08a2.87,2.87,0,0,0-.61-1.42,1.43,1.43,0,0,0-1.14-.51,1.4,1.4,0,0,0-.88.23.77.77,0,0,0-.3.64,1,1,0,0,0,.15.55,1.65,1.65,0,0,0,.43.45,4.27,4.27,0,0,0,.7.44L90,20q.42.21.84.45a3.72,3.72,0,0,1,.77.56,2.79,2.79,0,0,1,.56.72A2,2,0,0,1,92.36,22.66Z" transform="translate(-0.9 -1.39)"/><path class="cls-3" d="M92.84,25.41V24.6a4.14,4.14,0,0,0,1-.29q.3-.16.3-.3V18.39a.89.89,0,0,0-.12-.48.62.62,0,0,0-.36-.25,4.61,4.61,0,0,0-.78-.12v-.78c.61-.08,1.17-.17,1.68-.28a14.16,14.16,0,0,0,1.49-.4h.72V24c0,.08.09.17.27.29a3.45,3.45,0,0,0,1,.3v.81Zm4.27-12.26a1.42,1.42,0,0,1-.13.63,1.37,1.37,0,0,1-.38.48,1.57,1.57,0,0,1-.57.31,2.3,2.3,0,0,1-.71.11,2,2,0,0,1-.56-.07,1.48,1.48,0,0,1-.48-.2,1,1,0,0,1-.34-.35,1,1,0,0,1-.13-.51,1.46,1.46,0,0,1,.14-.63,1.37,1.37,0,0,1,.38-.48,1.94,1.94,0,0,1,.57-.3,2.35,2.35,0,0,1,.71-.11,2,2,0,0,1,.55.07,1.48,1.48,0,0,1,.48.2,1,1,0,0,1,.34.34A.92.92,0,0,1,97.11,13.15Z" transform="translate(-0.9 -1.39)"/><path class="cls-3" d="M107.64,20.7a4.58,4.58,0,0,1-.18,1.27,4.86,4.86,0,0,1-.5,1.17,5.12,5.12,0,0,1-.77,1,4.56,4.56,0,0,1-1,.81,4.51,4.51,0,0,1-1.16.53,4.29,4.29,0,0,1-1.29.19,4.85,4.85,0,0,1-1.86-.35,4.09,4.09,0,0,1-1.43-1,4.15,4.15,0,0,1-.91-1.46,5,5,0,0,1-.33-1.84,5.37,5.37,0,0,1,.16-1.26,5.48,5.48,0,0,1,.47-1.18,4.63,4.63,0,0,1,.74-1,4.23,4.23,0,0,1,1-.81,4.68,4.68,0,0,1,2.56-.73,4.67,4.67,0,0,1,1.86.35,4.19,4.19,0,0,1,1.43,1,4.34,4.34,0,0,1,.91,1.47A5,5,0,0,1,107.64,20.7Zm-2.77.48a7.63,7.63,0,0,0-.13-1.46,5.08,5.08,0,0,0-.38-1.23,2.4,2.4,0,0,0-.64-.84,1.39,1.39,0,0,0-.88-.31,1.53,1.53,0,0,0-.91.26,1.83,1.83,0,0,0-.57.73,3.75,3.75,0,0,0-.29,1.11,9.75,9.75,0,0,0-.09,1.37,6.45,6.45,0,0,0,.16,1.43,4.68,4.68,0,0,0,.41,1.15,2.28,2.28,0,0,0,.65.77,1.29,1.29,0,0,0,.82.28,1.76,1.76,0,0,0,.9-.21,1.49,1.49,0,0,0,.57-.62,3.41,3.41,0,0,0,.3-1A11.69,11.69,0,0,0,104.87,21.18Z" transform="translate(-0.9 -1.39)"/><path class="cls-3" d="M113.85,25.41V24.6a6.18,6.18,0,0,0,1-.32c.19-.09.28-.18.28-.27V19.84a7,7,0,0,0,0-.87,1.44,1.44,0,0,0-.16-.55.73.73,0,0,0-.29-.31,1,1,0,0,0-.45-.09,2.15,2.15,0,0,0-.43,0,2.85,2.85,0,0,0-.51.12,5,5,0,0,0-.64.27c-.24.12-.51.27-.82.46V24c0,.1.1.2.31.3a4,4,0,0,0,1,.29v.81h-5.15V24.6a9,9,0,0,0,.95-.29c.21-.09.31-.19.31-.3V18.79c0-.25,0-.45,0-.6a.53.53,0,0,0-.13-.35.65.65,0,0,0-.37-.19,5.65,5.65,0,0,0-.75-.11v-.78l.95-.11c.29,0,.57-.09.83-.15s.52-.12.77-.18.5-.15.75-.24l.44.43.11,1.06a12.08,12.08,0,0,1,1.15-.71,6.8,6.8,0,0,1,1-.46,5,5,0,0,1,.91-.25,4.48,4.48,0,0,1,.8-.07,2.36,2.36,0,0,1,.8.13,1.72,1.72,0,0,1,.69.45,2.16,2.16,0,0,1,.48.8,3.71,3.71,0,0,1,.18,1.23V24a.17.17,0,0,0,.05.13.51.51,0,0,0,.19.13,2.68,2.68,0,0,0,.39.15,6.46,6.46,0,0,0,.63.18v.81Z" transform="translate(-0.9 -1.39)"/><path class="cls-4" d="M30.52,5.71C26.89,4.06,24,7,24,7c-2.86,2.31-5.93,12.23-5.93,12.23-.59,1.81-1.21.06-1.47-.54-.14-.32-1.67-5.34-4-5.47,0,0,5.91-2.83,6-7.38,0,0,.71-5.5-7.8-4.2A18.22,18.22,0,0,0,1.4,6.14S1.22,7,1.4,7.2A8.62,8.62,0,0,1,2.82,6.14C3.41,5.85,5,4.9,4.29,6.67c0,0-4,9.57-3.3,13.18,0,0,.35,4.07,4.19,5.13a15.55,15.55,0,0,0,4.9.48S5.89,23,6.3,20.14a44.9,44.9,0,0,1,2.13-9.31c1.06-2.68,2.36-5.52,2-6.7s-.71-1.41-1-1.41c0,0,3.13-1.07,4.08.41,1.12,1.75.7,3.89-.15,5.65-.58,1.22-1.5,3.07-2.69,3.8,0,0-1.83,1.12-1.12,1.71,0,0,1.54.65,1.3,1.78,0,0-1.06,4.84-.83,5.55a1.9,1.9,0,0,0,1.83,1.65h1.89s.71-2.16,1.18-4.14v0s.36-1,.64-.08c.87,3.36,2.62,7.86,5,6.32,1.63-1,2.73-4.91,3.33-6.74a45.52,45.52,0,0,1,4.35-8.51c1.5-2.44,6.31-1.65,6.31-1.65A15.29,15.29,0,0,0,30.52,5.71Z" transform="translate(-0.9 -1.39)"/><path class="cls-3" d="M102.84,10.46H99.53l-.42,0V10l.42,0h3.73l.42,0v.53l-.42,0Zm.28-2.21V9.64H99.66V8.06c0-.05,0-.12,0-.2h.64a1.49,1.49,0,0,0,0,.21c0,.06,0,.13,0,.2v0h2.3v0a1.27,1.27,0,0,0,0-.2,1.49,1.49,0,0,0,0-.21h.64a1.91,1.91,0,0,0,0,.2C103.13,8.12,103.12,8.18,103.12,8.25ZM99.68,13V11.69h2.75v-.37H99.68v-.52l.24,0h3.22a1.46,1.46,0,0,0,0,.22v1h-2.76v.38H103a1.1,1.1,0,0,0,.25,0V13L103,13H99.68Zm2.86-3.82v-.4h-2.3v.4Z" transform="translate(-0.9 -1.39)"/><path class="cls-3" d="M106.57,10.15v.41h1.58a3,3,0,0,0,.42,0v.57l-.42,0h-3.74l-.42,0v-.57a3,3,0,0,0,.42,0h1.51v-.41h-1.35V8.82h2.77V8.44h-2.77V7.92a1.06,1.06,0,0,0,.24,0H108a1.5,1.5,0,0,0,0,.22,1.48,1.48,0,0,0,0,.21v.9h-2.79v.38h2.62l.25,0v.54l-.25,0h-1.23ZM108,12.51a2.44,2.44,0,0,0,0,.27,2.11,2.11,0,0,0,0,.26h-.66a2.11,2.11,0,0,0,0-.26v-.85h-2.57l-.3,0v-.56l.3,0H108c0,.07,0,.15,0,.22v.88Z" transform="translate(-0.9 -1.39)"/><path class="cls-3" d="M111.6,11.79h-2.33V8.42c0-.1,0-.19,0-.3h.62c0,.11,0,.2,0,.3a2.71,2.71,0,0,0,0,.29v.65H111V8.42c0-.1,0-.19,0-.3h.63a1.56,1.56,0,0,0,0,.3,2.71,2.71,0,0,0,0,.29Zm-.58-.54V9.91h-1.17v1.34Zm2,1c0,.13,0,.26,0,.39s0,.26,0,.39h-.64c0-.13,0-.26,0-.39s0-.26,0-.39V8.62c0-.12,0-.25,0-.38s0-.26,0-.39h.64c0,.13,0,.26,0,.39s0,.26,0,.38Z" transform="translate(-0.9 -1.39)"/><path class="cls-3" d="M115,8.61h-.7l-.21,0V8.05l.21,0h2l.21,0v.58l-.21,0h-.71V8.9a1.36,1.36,0,0,0,.1.51,1.46,1.46,0,0,0,.27.41,1.65,1.65,0,0,0,.4.35,2.13,2.13,0,0,0,.43.21,2.8,2.8,0,0,0-.22.25l-.16.2a1.85,1.85,0,0,1-.31-.16l-.35-.27a2.23,2.23,0,0,1-.27-.26,1.6,1.6,0,0,1-.19-.29,1.19,1.19,0,0,1-.18.3,2.26,2.26,0,0,1-.25.29q-.18.17-.36.3a3,3,0,0,1-.37.22l-.2-.19-.25-.24a2.27,2.27,0,0,0,.57-.31,2.24,2.24,0,0,0,.45-.47,1.66,1.66,0,0,0,.2-.4,1.41,1.41,0,0,0,.07-.47Zm-.29,4.31V11.46a1.5,1.5,0,0,0,0-.22h.64a1.5,1.5,0,0,0,0,.22v.91h2.49l.34,0v.59l-.34,0h-3.09Zm2.72-3.32h-.73l-.2,0V9l.21,0h.72V8.14c0-.09,0-.19,0-.29h.63c0,.1,0,.2,0,.29v3.22c0,.09,0,.19,0,.28h-.63a2.64,2.64,0,0,0,0-.28V9.6Z" transform="translate(-0.9 -1.39)"/></svg>